<svg width="68" height="48" viewBox="0 0 68 48" fill="none" xmlns="http://www.w3.org/2000/svg">
<g clip-path="url(#clip0_4_34)">
<path d="M66.4919 7.48667C66.1019 6.03961 65.3412 4.72038 64.2856 3.66034C63.2299 2.6003 61.9162 1.83643 60.4751 1.4448C55.1992 0 33.9655 0 33.9655 0C33.9655 0 12.7308 0.0437332 7.45497 1.48853C6.01384 1.88019 4.70003 2.6441 3.64438 3.70419C2.58872 4.76428 1.82806 6.08357 1.43814 7.53067C-0.157686 16.9435 -0.776737 31.2864 1.48196 40.3227C1.87192 41.7697 2.6326 43.0889 3.68825 44.149C4.7439 45.209 6.05769 45.9729 7.49879 46.3645C12.7747 47.8093 34.0088 47.8093 34.0088 47.8093C34.0088 47.8093 55.2427 47.8093 60.5183 46.3645C61.9595 45.9729 63.2733 45.2091 64.329 44.149C65.3847 43.089 66.1454 41.7697 66.5354 40.3227C68.2186 30.8965 68.7373 16.5624 66.4919 7.48667Z" fill="#FF0000"/>
<path d="M27.2069 34.1493L44.8218 23.9045L27.2069 13.6597V34.1493Z" fill="white"/>
</g>
<defs>
<clipPath id="clip0_4_34">
<rect width="68" height="48" fill="white"/>
</clipPath>
</defs>
</svg>
